<svg width="55" height="37" viewBox="0 0 55 37" fill="none" xmlns="http://www.w3.org/2000/svg">
<path fill-rule="evenodd" clip-rule="evenodd" d="M6.93298 4.86607C5.73458 4.86607 4.92472 5.69441 4.92472 6.5385V29.9526C4.92472 30.7967 5.73458 31.625 6.93298 31.625H47.0983C48.2967 31.625 49.1065 30.7967 49.1065 29.9526V6.5385C49.1065 5.69441 48.2967 4.86607 47.0983 4.86607H6.93298ZM0.015625 6.5385C0.015625 3.07219 3.2019 0.40625 6.93298 0.40625H47.0983C50.8294 0.40625 54.0156 3.07219 54.0156 6.5385V29.9526C54.0156 33.4189 50.8294 36.0848 47.0983 36.0848H6.93298C3.2019 36.0848 0.015625 33.4189 0.015625 29.9526V6.5385Z" fill="#FF6633"/>
<path fill-rule="evenodd" clip-rule="evenodd" d="M0.015625 13.9051C0.015625 12.84 1.11456 11.9766 2.47017 11.9766H51.5611C52.9167 11.9766 54.0156 12.84 54.0156 13.9051C54.0156 14.9703 52.9167 15.8337 51.5611 15.8337H2.47017C1.11456 15.8337 0.015625 14.9703 0.015625 13.9051Z" fill="#FF6633"/>
</svg>
