<svg width="40" height="55" viewBox="0 0 40 55" fill="none" xmlns="http://www.w3.org/2000/svg">
<path fill-rule="evenodd" clip-rule="evenodd" d="M7.96261 5.67081C6.63121 5.67081 5.5519 6.76975 5.5519 8.12536V47.3981C5.5519 48.7537 6.63121 49.8526 7.96261 49.8526H32.0698C33.4012 49.8526 34.4805 48.7537 34.4805 47.3981V8.12536C34.4805 6.76975 33.4012 5.67081 32.0698 5.67081H7.96261ZM0.730469 8.12536C0.730469 4.05853 3.96841 0.761719 7.96261 0.761719H32.0698C36.064 0.761719 39.3019 4.05853 39.3019 8.12536V47.3981C39.3019 51.4649 36.064 54.7617 32.0698 54.7617H7.96261C3.96841 54.7617 0.730469 51.4649 0.730469 47.3981V8.12536Z" fill="#FF6633"/>
<path fill-rule="evenodd" clip-rule="evenodd" d="M18.0879 42.2249C18.0879 40.6272 19.1618 39.332 20.4866 39.332H20.5106C21.8354 39.332 22.9093 40.6272 22.9093 42.2249C22.9093 43.8226 21.8354 45.1177 20.5106 45.1177H20.4866C19.1618 45.1177 18.0879 43.8226 18.0879 42.2249Z" fill="#FF6633"/>
</svg>
