<svg width="55" height="37" viewBox="0 0 55 37" fill="none" xmlns="http://www.w3.org/2000/svg">
<path fill-rule="evenodd" clip-rule="evenodd" d="M7.26697 4.86607C6.06856 4.86607 5.2587 5.69441 5.2587 6.5385V29.9526C5.2587 30.7967 6.06856 31.625 7.26697 31.625H47.4323C48.6307 31.625 49.4405 30.7967 49.4405 29.9526V6.5385C49.4405 5.69441 48.6307 4.86607 47.4323 4.86607H7.26697ZM0.349609 6.5385C0.349609 3.07219 3.53588 0.40625 7.26697 0.40625H47.4323C51.1633 0.40625 54.3496 3.07219 54.3496 6.5385V29.9526C54.3496 33.4189 51.1633 36.0848 47.4323 36.0848H7.26697C3.53588 36.0848 0.349609 33.4189 0.349609 29.9526V6.5385Z" fill="#FF6633"/>
<path fill-rule="evenodd" clip-rule="evenodd" d="M29.0435 10.2175C27.36 9.88269 25.6151 10.0545 24.0292 10.7114C22.4437 11.3682 21.0881 12.4806 20.1345 13.9078C19.1808 15.335 18.6719 17.0131 18.6719 18.7294C18.6719 21.0309 19.5862 23.2385 21.2138 24.866C22.8413 26.4935 25.0488 27.4079 27.3504 27.4079C29.0665 27.4079 30.7445 26.8992 32.1718 25.9454C33.5993 24.9918 34.7116 23.6362 35.3683 22.0507C36.0252 20.4648 36.1969 18.7193 35.8623 17.036C35.5274 15.353 34.7008 13.8063 33.4869 12.5925C32.2733 11.3788 30.7267 10.5524 29.0435 10.2175ZM25.6897 14.7204C24.897 15.0488 24.2192 15.605 23.7425 16.3186C23.2657 17.032 23.0112 17.8712 23.0112 18.7294C23.0112 19.8801 23.4683 20.9839 24.2821 21.7976C25.0959 22.6114 26.1997 23.0686 27.3504 23.0686C28.2087 23.0686 29.0477 22.8142 29.761 22.3375C30.4744 21.8609 31.031 21.1829 31.3593 20.3901C31.6877 19.5974 31.7738 18.7248 31.6065 17.8829C31.4389 17.0412 31.0253 16.2674 30.4186 15.6609C29.812 15.0542 29.0387 14.6409 28.197 14.4734C27.3552 14.306 26.4826 14.392 25.6897 14.7204Z" fill="#FF6633"/>
</svg>
