<svg width="51" height="51" viewBox="0 0 51 51" fill="none" xmlns="http://www.w3.org/2000/svg">
<path fill-rule="evenodd" clip-rule="evenodd" d="M15.8822 5.8868C15.4687 5.53189 14.9392 5.33857 14.3923 5.34395L14.3695 5.34406H7.50904C7.19653 5.34447 6.88765 5.40977 6.60207 5.53566C6.31624 5.66167 6.06016 5.84554 5.85 6.07531C5.63985 6.30507 5.48019 6.5757 5.38092 6.86986C5.28328 7.15919 5.2461 7.46523 5.27152 7.76917C5.98611 14.4534 8.26663 20.8763 11.9292 26.5188L11.9402 26.5359C15.2683 31.763 19.709 36.1951 24.9473 39.5171L24.9654 39.5287C30.5933 43.1712 36.9983 45.4472 43.6669 46.1742C43.9736 46.1995 44.2822 46.1617 44.5737 46.0634C44.8707 45.9631 45.1432 45.8022 45.3737 45.5911C45.6042 45.38 45.7877 45.1235 45.9128 44.8381C46.0378 44.5528 46.1016 44.2447 46.1004 43.9336L46.1003 43.9241V37.0759C46.1003 37.0567 46.1006 37.0374 46.1011 37.0181C46.1147 36.4704 45.9262 35.9361 45.5703 35.5169C45.2161 35.0997 44.7206 34.8254 44.1765 34.7467C41.8113 34.4344 39.4889 33.8566 37.2535 33.0241L37.2483 33.0221C36.8453 32.871 36.4071 32.8382 35.9859 32.9278C35.5665 33.0171 35.1819 33.2239 34.8772 33.5232C34.8759 33.5245 34.8746 33.5258 34.8733 33.527L31.9777 36.4169C31.2376 37.1555 30.0957 37.3096 29.1863 36.7936C23.0963 33.3375 18.0533 28.3048 14.5898 22.2257C14.0706 21.3144 14.2254 20.1685 14.9677 19.4276L17.8671 16.5339C18.167 16.2299 18.3732 15.8472 18.4621 15.4311C18.5514 15.0132 18.5188 14.5786 18.3681 14.1785L18.3661 14.1732C17.5318 11.9416 16.9525 9.62308 16.6395 7.26167C16.5618 6.72822 16.2933 6.2397 15.8822 5.8868ZM14.3592 0.691628C16.0279 0.678273 17.6457 1.26931 18.9123 2.35642C20.1822 3.44637 21.0125 4.9608 21.2472 6.61792L21.2501 6.63935C21.5166 8.65585 22.0107 10.6359 22.7231 12.5416C23.1869 13.7748 23.2871 15.1149 23.0118 16.4033C22.7363 17.6928 22.0962 18.8758 21.1682 19.8124L21.159 19.8216L19.5449 21.4325C22.2234 25.6161 25.7833 29.1682 29.9767 31.8409L31.6052 30.2157C32.5436 29.2895 33.7278 28.6518 35.0173 28.3774C36.3059 28.1031 37.6462 28.2029 38.8799 28.6652C40.7901 29.3763 42.7747 29.8696 44.7961 30.1357L44.8168 30.1385C46.4916 30.3743 48.0222 31.2164 49.117 32.5059C50.2049 33.7874 50.7868 35.4218 50.7528 37.1019V43.92C50.7559 44.8785 50.5588 45.8271 50.1742 46.7051C49.7888 47.5847 49.2238 48.3739 48.5155 49.0224C47.8073 49.6709 46.9714 50.1644 46.0615 50.4715C45.1517 50.7786 44.1878 50.8926 43.2314 50.8063C43.2239 50.8057 43.2164 50.8049 43.2089 50.8042C43.2025 50.8035 43.196 50.8029 43.1896 50.8022C35.7939 50.0002 28.6895 47.4788 22.4465 43.4403C16.6388 39.7553 11.7139 34.8403 8.02122 29.0433C3.95985 22.7835 1.43211 15.6569 0.642951 8.24029L0.639371 8.20393C0.55303 7.25038 0.666592 6.2894 0.97274 5.38222C1.27888 4.47505 1.77084 3.64177 2.41701 2.9353C3.06317 2.22885 3.84937 1.66471 4.72539 1.27853C5.6014 0.892355 6.5482 0.692528 7.50554 0.691629L14.3592 0.691628Z" fill="#FF6633"/>
</svg>
