<svg width="55" height="55" viewBox="0 0 55 55" fill="none" xmlns="http://www.w3.org/2000/svg">
<g clip-path="url(#clip0_4307_11249)">
<path fill-rule="evenodd" clip-rule="evenodd" d="M27.3496 5.67081C15.1491 5.67081 5.2587 15.5612 5.2587 27.7617C5.2587 39.9622 15.1491 49.8526 27.3496 49.8526C39.5501 49.8526 49.4405 39.9622 49.4405 27.7617C49.4405 15.5612 39.5501 5.67081 27.3496 5.67081ZM0.349609 27.7617C0.349609 12.85 12.4379 0.761719 27.3496 0.761719C42.2613 0.761719 54.3496 12.85 54.3496 27.7617C54.3496 42.6734 42.2613 54.7617 27.3496 54.7617C12.4379 54.7617 0.349609 42.6734 0.349609 27.7617Z" fill="#FF6633"/>
<path fill-rule="evenodd" clip-rule="evenodd" d="M0.349609 28.2427C0.349609 26.9113 1.44855 25.832 2.80416 25.832H51.8951C53.2507 25.832 54.3496 26.9113 54.3496 28.2427C54.3496 29.5741 53.2507 30.6535 51.8951 30.6535H2.80416C1.44855 30.6535 0.349609 29.5741 0.349609 28.2427Z" fill="#FF6633"/>
<path fill-rule="evenodd" clip-rule="evenodd" d="M20.5993 27.8461C20.7645 35.37 23.3138 42.6137 27.8309 48.5207C32.348 42.6137 34.8973 35.37 35.0625 27.8461C34.8973 20.3222 32.348 13.0785 27.8309 7.17151C23.3138 13.0785 20.7645 20.3222 20.5993 27.8461ZM27.8309 3.37683L26.051 1.72656C19.627 8.86505 15.9763 18.129 15.7779 27.7951C15.7772 27.8291 15.7772 27.8631 15.7779 27.8971C15.9763 37.5632 19.627 46.8271 26.051 53.9656C26.5077 54.4731 27.1537 54.7623 27.8309 54.7623C28.5081 54.7623 29.1541 54.4731 29.6109 53.9656C36.0348 46.8271 39.6856 37.5632 39.884 27.8971C39.8847 27.8631 39.8847 27.8291 39.884 27.7951C39.6856 18.129 36.0348 8.86505 29.6109 1.72656L27.8309 3.37683Z" fill="#FF6633"/>
</g>
<defs>
<clipPath id="clip0_4307_11249">
<rect width="54" height="54" fill="white" transform="translate(0.349609 0.761719)"/>
</clipPath>
</defs>
</svg>
